<svg viewBox="0 0 192 192" xmlns="http://www.w3.org/2000/svg" fill="#000">
  <!-- Rounded rectangle background -->
  <rect x="12" y="12" width="168" height="168" rx="48" ry="48" />
  
  <!-- Stylized "TM.CV" text -->
  <g fill="#FFF" transform="translate(24, 42) scale(6)">
    <!-- T -->
    <path d="M2 2h6v2H6v12H4V4H2V2z" />
    
    <!-- M -->
    <path d="M9 2h2v8l2-4 2 4V2h2v14h-2l-2-6-2 6h-2V2z" />
    
    <!-- Dot -->
    <circle cx="19" cy="15" r="1" />
    
    <!-- CV -->
    <path d="M21 2c1.1 0 2 0.9 2 2v10c0 1.1-0.9 2-2 2s-2-0.9-2-2V4c0-1.1 0.9-2 2-2z" />
    <path d="M25 2c1.1 0 2 0.9 2 2v10c0 1.1-0.9 2-2 2s-2-0.9-2-2V4c0-1.1 0.9-2 2-2z" />
  </g>
</svg>
